<svg id="blueprint-4" width="100%" height="100%" viewBox="0 0 301 197" xmlns="http://www.w3.org/2000/svg" fill="none" stroke="currentColor" stroke-width="0.5" style="fill-rule:evenodd;clip-rule:evenodd;stroke-linecap:round;stroke-linejoin:round;">
	<path d="M42.09,36.09c0.09,0.04 -4.46,-13.96 -4.46,-13.96c0,0 1.1,-1.58 2.64,0l5.13,11.51" />
	<path d="M54.24,56.17l-15.8,0l-36.8,16.34c0,0 -0.29,0.86 27.35,0.86l63.38,0" />
	<path d="M2.68,72.05l-2.18,-0.55c0,0 15.4,-15.26 25.76,-23.32c8.55,-6.65 17.88,-13.59 20.89,-15.82c0.65,-0.48 1.33,-0.94 2.02,-1.37c26.48,-16.44 60.41,-30.86 70.36,-29.3c9.95,1.56 6.48,5.33 4.61,7.77c-1.87,2.44 -9.5,8.06 -9.5,8.06l-5.18,-10.36c0,0 -2.45,-1.44 -7.77,2.3l-10.36,20.87l-44.91,22.31l61.6,27.78l-0.14,-3.17l-56.85,-25.48c0,0 31.05,-0.55 65.19,-10.78" />
	<path d="M40.45,22.55l12.93,0" />
	<path d="M53.38,21.76l0,1.49l9.05,0l1.36,-0.75c0,0 -0.55,-0.52 -1.27,-0.52l-0.08,-0.56l-9.07,0.33l0.01,0.01Z" />
	<path d="M39.11,38.36l2.4,0.38c0,0 22.02,-17.76 50.38,-27.98l1.41,-2.3" />
	<path d="M80.76,15.26l5.12,17.77" />
	<path d="M83.71,13.97l4.95,17.68" />
	<path d="M38.44,56.17c0,0 -2.83,-6.84 -3.12,-8.57c-0.29,-1.73 -0.05,-2.15 1.56,-3.31c1.61,-1.16 3.62,-3.31 9.52,-2.16c5.9,1.15 15.03,3.04 15.03,3.04" />
	<path d="M41.51,41.95l4.9,10.69" />
	<path d="M42.15,43.34c0.08,0.09 16.92,3.01 16.92,3.01" />
	<path d="M22.83,50.94l1.25,11.61" />
	<path d="M23.21,54.44l-1.85,1.37l2,0" />
	<path d="M23.54,57.55l-2.03,1.43l2.16,-0.25" />
	<path d="M91.31,30.33l15.12,-8.63l-4,-12.74l9.8,8.69" />
	<path d="M106.43,21.7l7.48,5.9" />
	<path d="M110.88,10.01l11.19,63.36c0,0 1.49,0.72 2.78,-0.86l-9.45,-55.55" />
	<path d="M59.33,55.5l0,-1l54.29,-0.99l4.61,-1.87" />
	<path d="M61.45,56.39l52.82,-0.15" />
	<path d="M113.62,53.51l2.74,9.93" />
	<path d="M117.67,30.33c0,-0 5.02,2.16 5.31,4.17c0.29,2.01 -1.33,4.35 -3.69,5.34" />
	<path d="M116.01,20.57l5.53,4.72l1.47,9.49" />
	<path d="M25.51,73.37l33.82,-14.9" />
	<path d="M70.01,73.37l10.49,-5.35" />
	<path d="M83.47,66.32l20.26,-9.93" />
	<path d="M99.19,73.37l12.06,0.14" />
	<path d="M119.28,57.57l-7.24,14.79c0,0 0.18,1.97 3.62,1.49l4.89,-9.08" />
	<path d="M112.04,72.36l-2.73,5.76c0,0 0.86,2.45 4.17,1.44l2.18,-5.71" />
	<path d="M107.87,77.26l1.15,0.43c0,0 1.01,1.6 0,3.53l-1.01,-0.8" />
	<path d="M107.87,82.86l1.15,-1.64l4.46,-1.66l10.08,0.58l4.03,2.16l13.1,8.06c0,0 0.14,3.02 -3.02,4.89c0,0 -12.23,-8.49 -20.15,-9.64c-7.92,-1.15 -9.64,-2.74 -9.64,-2.74l-0.01,-0.01Z" />
	<path d="M122.07,73.37l1.49,6.77l4.84,2.66l-0,-1.04c-0,-0.88 -0.19,-1.74 -0.54,-2.55l-3,-6.7" />
	<path d="M118.08,69.35l2.97,10.64" />
	<path d="M121.66,53.76l13.12,-25.73l5.19,1.01l-17.02,32.31" />
	<path d="M121.54,25.29l41.31,6.77" />
	<path d="M122.09,28.82l11.52,1.51" />
	<path d="M138.68,31.47c-0.02,-0.13 19.27,2.89 19.27,2.89" />
	<path d="M130.4,47.22l60.95,-28.55" />
	<path d="M121.14,50.68l2.67,-1.12" />
	<path d="M115.52,17.65l175.72,-0.7" />
	<path d="M121.39,12.16l139.48,-0.4" />
	<path d="M114.59,1.85c0.18,-0.01 1.33,-1.02 9.83,-1.16c8.5,-0.14 175.6,-0.44 175.6,-0.44" />
	<path d="M191.13,17.38l21.57,99.89l6,0l-26.63,-99.89" />
	<path d="M209.16,119.81l-34.36,-36.5l-13.24,5.9c0,0 -3.89,-1.87 -8.06,-0.29l3.89,-24.9c0,0 2.16,-2.73 4.03,-1.58c1.84,1.13 46.55,54.19 48.07,55.99c-0.08,0.07 -0.72,0.86 -0.29,1.44l-4.99,2.33" />
	<path d="M163.9,65.04c0,0 -2.34,-0.74 -4.36,0.99l-0.98,22.35" />
	<path d="M159.16,74.65c0,0 6.51,-3.62 10.21,-3.39" />
	<path d="M158.75,84.05c0.07,-0.17 12.84,-6 16.31,-6.18" />
	<path d="M176.51,79.56c0,0 -2.58,0.86 -1.72,3.74" />
	<path d="M161.56,89.2l-1.73,11.23" />
	<path d="M153.5,88.91l-1.59,7.63" />
	<path d="M140.63,91.08l63.82,31.23c0,0 -0.43,1.58 -3.89,1.58l-61.67,-29.56" />
	<path d="M151.07,100.17l-9.09,46.32" />
	<path d="M159.27,104.1l-6.49,40.23" />
	<path d="M126.45,76.08c0,0 14.55,-3.27 30.66,-10.33" />
	<path d="M197.75,48.04c0,0 -13.31,7.22 -34.9,15.85" />
	<path d="M122.69,87.04l16.2,64.15c0,0 1.65,0.48 3.52,-1.97l-14.97,-60.02" />
	<path d="M200.56,123.89c0,0 -32.67,12.81 -58.15,25.33" />
	<path d="M212.7,117.27l-3.21,1.15" />
	<path d="M221.03,116.24c4.36,-1.68 9.09,-2.12 13.72,-1.63c0.58,0.14 1.44,0.29 1.44,1.01c0,0.43 0,0.86 -0.43,1.15c-0.58,0.29 -1.01,0.14 -1.58,0.14c-1.73,-0.29 -3.31,-0.14 -5.04,-0.14c-1.87,0.14 -3.6,0.58 -5.47,1.15c-0.86,0.29 -1.58,0.72 -2.3,1.15c-12.81,6.77 -25.19,13.1 -38.14,19.43c-0.14,0.14 -0.43,0.29 -0.58,0.43c-7.34,3.17 -13.31,6.41 -21.09,9.86c0,0 -28.36,13.39 -54.98,22.02c0,0 -1.3,0.72 -0.86,2.3c0.44,1.58 0.72,3.02 0.72,3.02c0,0 -4.46,0.14 -3.89,-3.31c0.57,-3.45 2.73,-3.6 13.24,-7.05c10.51,-3.45 52.39,-21.45 60.45,-25.33c8.06,-3.88 30.23,-15.23 33.25,-17.12c2.17,-1.35 5.97,-3.88 7.94,-5.21c1.13,-0.76 2.33,-1.4 3.6,-1.89l0,0.02Z" />
	<path d="M138.82,150.92c0,-0 -21.66,11.89 -28.25,16.54" />
	<path d="M199.59,45.6l45.69,-28.47" />
	<path d="M201.38,52.31l95.76,3.36" />
	<path d="M204.3,63.27l83.49,3.48" />
	<path d="M207.29,74.46l54.3,0.64" />
	<path d="M131.47,192.69c0,0 1.44,0.58 0.86,1.73c-0.58,1.15 -3.02,2.16 -4.32,0.58c-1.3,-1.58 0.29,-2.73 2.59,-5.04c2.3,-2.31 18.57,-17.27 46.92,-31.23c28.36,-13.96 50.23,-22.31 53.98,-23.17c3.75,-0.86 5.04,-0.72 4.46,0.86c-0.58,1.58 -1.87,1.3 -3.02,1.3c-1.15,0 -4.46,1.15 -7.48,2.3c-3.02,1.15 -23.32,8.92 -38.29,16.26c-14.97,7.34 -29.65,15.26 -37.14,21.01c-7.48,5.76 -18.14,13.82 -18.57,15.4l0.01,0Z" />
	<path d="M221.03,119.24c0,-0 2.07,7.57 4,10.69c1.87,3.02 3.74,4.75 6.93,5.51" />
	<path d="M235.12,116.94c0,0 2.03,4.79 1.58,10.4c-0.45,5.61 -1.32,7.68 -1.32,7.68" />
	<path d="M234,137.73c0,0 -3.79,12.36 -15.73,18.4c-11.95,6.05 -37.57,16.74 -46.78,20.96c-9.21,4.22 -38.93,16.7 -38.93,16.7" />
	<path d="M106.43,176.14c0,-0 2.02,8.2 7.2,10.08c5.18,1.87 13.93,7.59 13.93,7.59" />
	<circle cx="223.38" cy="120.8" r="0.5" />
	<circle cx="225.39" cy="125.4" r="0.5" />
	<circle cx="227.98" cy="129.58" r="0.5" />
	<circle cx="230.72" cy="132.74" r="0.5" />
	<circle cx="233.88" cy="133.75" r="0.5" />
	<circle cx="111.97" cy="4.93" r="0.5" />
	<circle cx="113.26" cy="8.05" r="0.5" />
	<circle cx="114.56" cy="11.17" r="0.5" />
	<circle cx="115.86" cy="14.28" r="0.5" />
	<path d="M117.86,51.78l1.58,6.69" />
</svg>
