<?xml version="1.0" encoding="UTF-8"?>
<svg id="Layer_1" data-name="Layer 1" xmlns="http://www.w3.org/2000/svg" version="1.1" viewBox="0 0 473 527">
  <defs>
    <style>
      .cls-1 {
        fill: #000;
        stroke-width: 0px;
      }
    </style>
  </defs>
  <path class="cls-1" d="M32.3,395.5c3.5-5.7,7.2-11.2,10.5-17,62.9-108.9,125.8-217.9,188.8-326.8,3.6-6.2,6-6.2,9.6.1,65.8,114,131.7,228,197.5,342,4.1,7,2.1,8.8-7.7,8.3-12-.6-24-.4-36.1.1s-6-.9-7.7-4.1c-3.5-6.6-7.5-13-11.2-19.5-2.8-5-1.7-7,3.9-7.3,7.2-.3,8.4-2.7,4.8-9.1-46.8-81.1-93.6-162.2-140.4-243.3-1.2-2-2.3-4.1-3.5-6-2.8-4.4-6-4.5-8.7,0-4.8,8-9.4,16.1-14,24.2-43.2,74.9-86.5,149.8-129.7,224.7-4.5,7.8-2.3,9.9,8.5,9.4,5.7-.3,11.4-.3,17.1.1s6.7-1.3,8.8-4.9c36.2-63,72.6-125.8,109-188.8,3.4-5.8,6-6,9.1-.6,41.8,72.3,83.5,144.6,125.2,216.9,3.6,6.3,2.4,8.2-5,8.2-72,0-144,0-216-.1-5.3,0-8.6,1.4-11,6.4-2.9,6-6.6,11.6-9.9,17.4-3.2,5.8-1.7,8.4,4.8,8.4,13.5,0,27,0,40.5,0,57.7,0,115.3,0,173,0,8.1,0,9.3-1.8,5.9-9-2.1-4.4-.8-6.6,4.2-6.7,8-.1,16-.3,24,.1s4.4,1.5,5.5,3.2c7.2,12,14.2,24.2,21.1,36.4,2.5,4.4,1,6.9-4.1,7.1-1,0-2,0-3,0-105.7,0-211.4,0-317,0-1.7,0-3.3,0-5,0-5.4-.2-6.9-2.7-4.1-7.4,7.2-12.6,14.5-25.1,21.7-37.7,1.7-2.9,3.4-5.8,5-8.7,4-7,2.6-9.4-5.2-9.4-17.3,0-34.7,0-52,0-1.3,0-2.7-.2-4-.4l-2.9-6.3ZM235.9,371.3c23.6,0,47.3,0,70.9,0,7.2,0,8.8-2.7,5.2-8.9-23.5-40.7-47-81.3-70.5-122-3.7-6.5-6.7-6.4-10.5.1-23.4,40.5-46.8,81-70.2,121.5-3.8,6.6-2.4,9.2,5.1,9.2,23.3,0,46.6,0,69.9,0Z"/>
</svg>