<svg xmlns="http://www.w3.org/2000/svg" xmlns:xlink="http://www.w3.org/1999/xlink" version="1.1" x="0px" y="0px" viewBox="0 0 100 125" style="enable-background:new 0 0 100 100;" xml:space="preserve"><style type="text/css">
	.st0{fill:none;stroke:#000000;stroke-width:2;stroke-linecap:round;stroke-linejoin:round;}
</style><g><path class="st0" d="M45.5,27.5c0,1.8,9.1-1.4,9.1,0c0,4-20.4,2.7-20.4,5.9c0,6.1,31.7-5.4,31.7,0c0,6.6-36.3-0.5-36.3,6   c0,7.5,40.8-6.9,40.8,0c0,7.2-42.9-1.9-42.9,6.1c0,7.2,45-8.1,45,0c0,7.6-45.3-1.5-45.3,6.1c0,6.9,45.7-8.5,45.7,0   c0,8.6-44.5-2-44.5,5.9c0,7.9,43.3-8.5,43.3,0c0,6.5-40.2-1.4-40.2,6c0,5.9,37.1-6.7,37.1,0c0,5.8-30.1,0.2-30.1,6.2   c0,3.5,23.2-3.7,23.2,0"/></g></svg>