<?xml version="1.0" encoding="UTF-8"?>
<svg id="line_art" data-name="line art" xmlns="http://www.w3.org/2000/svg" version="1.1" viewBox="0 0 1190.6 841.9">
  <defs>
    <style>
      .cls-1 {
        fill: none;
        stroke: #231f20;
        stroke-miterlimit: 10;
        stroke-width: 3px;
      }
    </style>
  </defs>
  <path class="cls-1" d="M190.3,581.3c1.9-6.9,5.2-16.5,11.7-26.7,5.5-8.8,11.6-15.3,16.5-19.7"/>
  <path class="cls-1" d="M288.2,766.2c-11.3.8-20.5-7.3-25.8-15.2-.7-1-1.2-2.2-1.5-3.7l-.8-3.4s-2.5,2.6-2.5,2.6l1.1-1.5c.3-.4.6-.9.9-1.3l.5-.7-.2-.8c-.3-1.1-.7-2.8-1.8-4.3-.5-.7-1-1.3-1.6-1.8l-1.3-1.2c1,.7,2,1.7,2.9,3,.2.3.4.6.6,1l1.8,3.4c0,0-.4.8-.4.8l.3,1.7c.4,2.2.7,4.4,2,6.3,4.1,6.1,16.7,15.1,25.7,15.1s.6,0,.9,0c20.1-1.5,18.7-24.7,17.7-40.1-.2-3-.4-5.9-.4-8.2,0-13.1,6.2-21.6,12.2-29.8,5-6.9,10.1-13.9,12.1-23.8,1.3-6.6-.1-13.5-1.3-19.6-.6-3.1-1.3-6.1-1.4-8.6-.1-2.9.2-5.7.5-8.4.8-7.3,1.5-13.5-8.2-17.5-1.4-.6-2.9-.8-4.5-.8-13.3,0-31.8,20-38.3,33.3-5.7,11.6-4.9,21.9-4,32.8.6,7.1,1.1,14.5-.3,22.3l-.3,1.8c-2,10.8-5.7,30.5-11.4,41.6l1-2.3c5.1-11.4,8.6-30.3,10.3-39.4l.3-1.8c.6-3.3.9-6.9.9-10.9l-3.9-.3c-1.3,6.9-4.7,14.3-8.1,21.4-4,8.6-7.8,16.7-8.6,24.4v.6c0,0-.2-.2-.2-.2l.4-2.3c1.2-7.3,4.8-15.1,8.4-22.6,6-12.8,11.7-24.9,6.8-35.3-1.4-2.9-3.3-4.7-5.7-5.3-.7-.2-1.4-.2-2.1-.2-1.8,0-3.7.5-6,1.4l-.5.2-.3.4c-4.7,4.9-7.5,9.6-9.2,12.9-3.6,7.2-4.6,13.5-5.3,18.5-1.2,8.2-.7,13.9-.7,13.9,0,0-2.7-16.9,5.9-32.4,1.3-2.3,2.5-4.1,3.5-5.4l-2.7-2.7c-1.5,1.1-2.9,2.1-4.2,3-1.1.8-2,1.5-2.9,2.1-5.4,3.8-9.5,5.7-13.5,6.1l-3.8.4,2.5,2.8c2.9,3.3,5.1,5.3,5.1,5.3h0c0,0-171.8,0-171.8,0h0c0-.1,171.5-.1,171.5-.1l-3.1-3.3c-1.5-1.6-2.9-3.2-4.2-4.8l-.5-.5h-.3c0,0-3.4-4.8-3.4-4.8-6.3-8.8-12.6-21.3-7.5-31.2,2.4-4.6,6.7-7.7,10.9-10.6,4.5-3.1,8.7-6.1,10.6-10.8,2.5-6-.5-11.1-3.6-16.4-1.4-2.4-2.9-4.9-3.8-7.5-4.3-11.5-4.3-21.6,0-29.3,1.2-2.1,3.1-3.6,5-5,1.7-1.3,3.4-2.6,4.5-4.4,1.1-1.9,1.4-4,1.6-6.1,0-.5.1-1,.2-1.5l.3-2.2h-16.5s0-16.8,0-16.8v-3.3s0,0,0,0v18.1c0,0,0,1.9,0,1.9h41.5c0,0-.7-2.4-.7-2.4-.3-1.1-.6-2-1-2.6-2.5-4.5-5.7-5.7-7.9-5.9-.3,0-.5,0-.8,0-4.2,0-8.8,2.7-12.7,7.5,0,0-.2.2-.2.3l-.8,1.1c.3-.5.6-1,1-1.5,3.8-4.7,8.6-7.6,12.8-7.6s.5,0,.8,0c2.3.2,5.5,1.4,8,5.9.5.8.9,2,1.3,3.6l.4,1.5,195.2.4v-119.8c1-20.9,1.6-31.5-22.4-37.7h-.6c0-.1-.3-.1-.3-.1h-197.4c-13.3,2-17,6.7-16.5,21.1v110.1h0c-4.1-3.1-9.6-6.2-15.3-9.4-13.4-7.5-28.5-15.9-30.7-28.8-1.6-9.7,1-17.7,7.5-22.4,4-2.9,9.5-4.5,15.5-4.5s9.5,1,13.8,2.9l2.1.9s0,0,0,.1c-4.8-2.4-10.4-3.8-15.9-3.8s-11.4,1.6-15.4,4.5c-6.5,4.7-9.1,12.4-7.4,22.2,2.1,12.8,17.3,21.3,30.6,28.7,4.4,2.5,8.6,4.8,12.2,7.2l3,2v-109.8c-.5-14.3,3.5-19.3,16.8-21.2h157.8s.3-3.9.3-3.9c-5.6-1-10.3-2.6-14.5-5l-.4-.2h-.5c-14.9,0-28-.4-28.7-.4,0-.2,2.8-14.9-.5-27.8-.2-.8-.4-1.5-.5-2.2l-.5-2.3-2.2,1c-9.6,4.3-20.4,5.2-27.8,5.2-3.3,0-7-.9-10.6-1.7-2.7-.6-5.2-1.2-7.7-1.5l-1.7-.2-.4,1.7c-2,8.8-5.1,22.6-9.2,27l.8-1.2c1.3-1.8,2.5-4.7,3.8-8.5,1.7-5.1,3.1-11.2,4.3-16.5l.6-2.6.4-1.9c1.2-5.3,2.2-9.9,3.1-12.4,5.3-14.7,10.4-31.5,4.4-45.3-3.5-8.1-9.5-13.5-15.3-18.4l-3.2-2.7v4.2c0,3.4,0,6.7-.4,9.9-1.4,12.6-5.6,36.3-18.8,53.9-14.4,19.2-26.1,19.4-45.6,19.8-2,0-4.1,0-6.3.1h0c8.9-3.3,19.3-12.2,18.4-36.3l-.2-4.2c1.1,12.1,0,28.2-11.2,36.7l-4.7,3.6h6c19.3-.5,30-1.6,43.6-19.8,13.2-17.6,17.4-41.3,18.8-53.9.5-4.2.6-8.6.4-13.3v-.9s-.7-.6-.7-.6c-3.8-3.1-7.7-6.5-11.1-10.4-6.4-7.6-8.8-26.7-4.6-36.6,1.4-3.3,3.4-5.4,5.9-6.1h.3c0,0-1.2.5-1.2.5-2.1,1-3.7,2.9-4.9,5.7-4.2,9.9-1.8,29,4.6,36.5,2.1,2.5,4.7,5,8.2,8l3.6,3.1-.4-4.7c-.9-9.8-2.8-19.6-4.8-29.1-1-5-2.1-10.2-2.9-15.4h0c0-.1,0-.2,0-.2-.2-.8-.4-1.6-.5-2.4l-.4-2.4h.2s-.2-1.7-.2-1.7c-1.8-13.4-2.9-31.2,5.3-49.1,10.3-22.6,23-34,37.8-34s3.3.1,4.9.4c1.6.3,3.1,1.2,4.5,2,1.7,1.1,2.9,1.8,4.2,1.8s2.3-.8,3-1.4c2.8-2.8,0-8.3-2.7-11.3-4.4-5-13.2-5.8-18-5.8s-7.9.5-11.2,1.4c-26.1,7.1-28.5,28.5-30.9,49.3-2,17.7-4,35.9-21.4,43.7-2.7,1.2-5.5,2.4-8.1,3.5-1.4.6-2.7,1.1-4,1.7l-1.1.5v1.2c-1.1,13.1-5.1,26.4-8.9,39.3-1.4,4.7-2.8,9.4-4.1,14.2l-.2.8.4.7c3,5.4,5.4,10.2,6.8,13.9-1.5-3.6-3.2-7-4.9-10.1l-2.4-4.5-1.2,4.9c-1.4,6-2.4,11.3-3,16.2v1c-.1,0-.2,0-.2,0l-.3,4.1c-.5,8.6.2,16.3,2.3,23.7l.7,2.3c-3-8.8-3.9-18.3-2.9-28.9v-1c0,0,0,0,0,0l.5-3.7c.8-5.3,1.9-10.9,3.7-17.7l.2-.8-.4-.7c-1.1-1.9-2.3-3.8-3.4-5.7-1.2-2.1-2.4-4-3.4-5.7-5.4-9.5-6.9-17.2-4.7-23.7,2.9-8.4,11.6-13.8,23.9-19.2l1.1-.5v-1.2c.3-4,.2-7.8-.2-11.5-.5-4.3-1.5-8-2.6-12-1.4-5-2.8-10.2-2.8-16.2,0-9.7,2.4-17.6,4.8-25.8v-.2c.6-1.7,1.1-3.4,1.6-5.2,5.7-19.9,15.7-34.7,32.5-48.1,9.9-7.9,19.7-11.7,29.8-11.7s16,2.1,26.6,6.9l1.1.5.9-.8c3.7-3,7.6-4.5,11.7-4.5s.9,0,1.4,0c11.8,1,22.2,14.1,26.7,19.6l.3.3c9.6,12,20.8,28,22.5,46,1,10.2-1.6,19.7-4.1,28.8-2.4,8.5-4.6,16.6-3.9,24.9.6,7.9,5.1,13.6,9.9,19.6,6,7.5,11.6,14.6,9.4,26l-.3,1.5,1.4.6c1.3.6,2.7,1.1,4.1,1.6,54.5,19,63.8,79.9,49.3,128.5-2.2-.2-5-.4-8.5-.4-8.9,0-19.3.9-19.4.9-1.1-2-2-4.1-2.9-6.3l-.5-1.4v-.2c0,0,0,0,0,0,.8,2.3,1.7,4.5,2.8,6.6l.6,1.2h1.3c3-.3,10.9-.9,17.9-.9s5.1,0,6.9.3h1.6c0,.1.4-1.4.4-1.4,7.4-25.7,7.6-52.1.6-74.2-8.1-25.7-25.5-43.9-50.3-52.6-1.8-.6-3.5-1.3-5.2-2.1l-.4-.2s-1,0-1.1,0l-5.8-3.8c-12.7-8.4-19.8-21.4-20.1-36.6-.2-9.5,2.8-18.7,5.6-27.5,3.3-10.3,6.4-20,5.1-30.2-1.5-10.9-9.8-22.2-19.9-27.1-3.4-1.6-6.8-2.5-10.2-2.5s-6.9.9-10,2.8c-5.8,3.5-6.8,6.8-6.5,9,.4,3.6,4.2,7.1,10.4,9.1,8.9,3,12.1,7.8,14.3,13.9l1.4,3.9,2.1-3.6c1.1-1.9,2.5-3.1,4-3.8.7-.3,1.4-.4,2.2-.4,1.3,0,2.7.4,4.1,1.3,3.3,3.4-.5,26.1-7.1,35.2-1.9,2.6-3.9,4-5.8,4s-.2,0-.3,0h-1.7c0-.1-.3,1.6-.3,1.6-.3,1.8-.7,3.7-1,5.5v.2c-2.5,13.6-5.1,27.6,1.3,37,6.5,9.5,20.9,11.2,31.2,11.6l6.4.3c-11.6-.2-30.1-.6-37.7-11.9-6.4-9.4-3.9-23.5-1.3-37,.5-2.7,1-5.2,1.4-7.8.4.1,1.1.4,2,.4,1.9,0,3.7-1.2,5.5-3.7,6.4-8.5,10.5-30.4,7.7-34.8l-.3-.4-.4-.2c-1.3-.7-2.5-1.1-3.7-1.1s-1.5.1-2.1.4c-2.6,1.1-4.8,4.3-5.9,8.6h0s0,0,0,0l-.2-.7c-2.3-7.8-4.3-14.5-15.7-18.4-6.2-2.1-10.1-5.5-10.4-9.2-.3-3.2,1.9-6.4,6.6-9.2,3.1-1.9,6.5-2.8,10.1-2.8s6.8.8,10.2,2.5c10.2,4.9,18.4,16.1,19.9,27.2,1.4,10.1-1.9,20.3-5.1,30.2-2.9,8.9-5.8,18-5.6,27.5.3,16.8,9.2,31,24.5,39.1l2.4,1.3.4-2.7c1.6-10.8-4-17.9-9.5-24.8-4.5-5.7-9.2-11.6-9.9-19.6-.7-8.3,1.6-16.4,3.9-24.9,2.5-9.1,5.1-18.5,4.1-28.8-1.7-17.9-12.9-34-22.4-45.9l-.2-.3c-4.5-5.6-14.9-18.6-26.6-19.6-.5,0-1,0-1.4,0-4.5,0-8.6,1.7-12.5,5.3-11.1-5.2-19.7-7.5-27.7-7.5s-19.7,3.7-29.7,11.7c-16.8,13.3-26.8,28.1-32.5,48-.5,1.8-1.1,3.6-1.6,5.3-2.6,8.6-4.8,16.1-4.8,25.8,0,6.1,1.3,11,2.8,16.2,1,3.8,2.1,7.7,2.6,12,.3,3.1.4,6.3.4,9.6v3c0,0,4.9-2.1,4.9-2.1,2.7-1.1,5.4-2.3,8.1-3.5,17.3-7.8,19.3-25.2,21.3-43.6,2.4-21.8,4.7-42.3,30.9-49.4,3.1-.8,7.4-1.4,11.4-1.4s13.5.8,17.9,5.8c3.3,3.7,5.3,8.9,2.7,11.5-1,1-2,1.5-3,1.5-1.5,0-3.1-1-4.3-1.8-1.4-.9-2.8-1.8-4.4-2-1.6-.3-3.2-.4-4.8-.4-14.8,0-27.5,11.4-37.8,33.9-8.8,19.1-7.1,38.7-4.3,55.3h0c0,.1,0,.2,0,.2,3.4,11.4,18.7,30.9,28.4,34,1.7.5,3.5.8,5.5.8,15.5,0,39.2-16.7,43.8-30.8h.1s0,1.3,0,1.3c-.2,21.4-.4,45.8-5.6,67.7-4.3,18.2-7.1,32.6-3.7,51.6l.5,2.8,2.4-1.5c1.2-.7,2.3-1.5,3.3-2.3l.8-.7v.3s-2.2,1.6-2.2,1.6c-1,.7-2,1.3-3.1,1.9l-1.2.7.3,1.4c.2,1.1.5,2.1.8,3.2,2.5,10.2,1.4,21.3.8,25.6l-.3,2.1h2.2c4.7.2,12.6.4,20.6.4h5.3s-4-3.4-4-3.4c-8-6.9-15.3-19.3-18.3-30.9l-.7-2.7h.1c0-.1.2.8.2.8,3,13.9,12.5,28.9,21.9,35.1.4.3.9.6,1.3.8l.5.3h2.3c26.1,0,40.8-.8,43.7-2.3,1-.5,1.8-1.1,2.6-1.7l1-.8v.3c0,0-1.9,1.3-1.9,1.3-.5.3-1,.6-1.6.9-1.2.6-7.2,2.1-36.4,2.2l-.5,3.8c7.5,2.2,15.3,2.5,23.5,2.9,7.1.3,14.4.6,21.4,2.3h.2c0,0,22.6,0,22.6,0h.2c7.2,1.1,15.3,2.2,15.2,14.7v143.1s-12.9,0-12.9,0h-1.9s0,8.7,0,8.7l-4.4,2.5-2.9,1.6,2.8,1.7c5.7,3.5,9.2,7.5,11.2,12.8,3.6,9.3,2.3,22-3.7,39h-.1c-.7-2.1-1.6-4.2-2.7-6.3l-1.6-3.3h0c.9,1.6,1.6,3.2,2.3,4.7l2.1,4.6,1.5-4.8c11.2-35.6-4-43.9-12.1-48.3l6.4-3.7,1-.6v-8.7l-195.2-.4.4,2.3c.1.8.3,1.7.4,2.6.4,2.5.7,4.8,1.2,6,.3.7.9,1.4,2.5,3.1,1.9,2,4.5,4.7,5.4,7.9,1.3,4.9,1.6,10.8,1.9,16.5.2,4.3.4,8.7,1.1,12.8.4,2.3.8,4.6,1.2,6.7,1.4,7.5,2.7,14.6.2,22.8-3.3,11-9.6,19.4-16.2,27.8l-2.8,3.6,4.5-.4c.3,0,.6,0,.9,0,.7,0,1.4,0,2.1.2,2.5.6,4.4,2.4,5.8,5.4.2.5.5,1,.7,1.6l3.8-.8c-.8-10.1-1-20,4.2-30.7,5.5-11.3,24.1-33.3,38.5-33.3s3.1.3,4.5.8c9.8,3.9,9.1,10.3,8.3,17.6-.3,2.7-.6,5.4-.5,8.4.1,2.5.7,5.5,1.4,8.6,1.2,6.1,2.7,13,1.3,19.6-1.9,9.9-7.1,17-12.1,23.8-6.3,8.6-12.2,16.7-12.1,29.8,0,2.4.2,5.2.4,8.2.4,6.9,3.1,28-7.3,36.5-4,3.3-8.7,3.6-11.5,3.8ZM234.9,556.8c-.1.7-.2,1.4-.3,2.1-.3,2.2-.5,4.2-1.6,6.1-1,1.8-2.7,3.1-4.5,4.4-1.9,1.4-3.8,2.9-4.9,5-5.3,9.6-2.9,21.2,0,29.2,1,2.6,2.4,5,3.8,7.4,3.2,5.4,6.2,10.4,3.6,16.5-2,4.8-6.4,7.9-10.7,10.9-4.4,3.1-8.5,6-10.9,10.6-5.7,11,2.6,25.2,10.6,35.1l.5.6h.8c.5.1,1.1.1,1.6.1h0c4.6,0,9.2-1.8,15.2-6.2.9-.6,1.8-1.3,2.8-2h.1c3.7-2.8,8.2-6.2,12.6-8.2l.4-.2s1.6-2,2.2-2.8c7.3-9.1,14.1-17.7,17.8-29.7,2.5-8.2,1.2-15-.2-22.8-.4-2.1-.8-4.4-1.2-6.7-.6-4.1-.9-8.6-1.1-12.8-.3-5.9-.6-11.5-1.8-16.4-.8-3.3-3.3-5.8-5.3-7.9-1.2-1.3-2.2-2.3-2.5-3.1-.5-1.2-.8-3.6-1.2-6-.2-1-.3-2.1-.5-3.2l-.3-1.6h-24.9s-.3,1.6-.3,1.6ZM443.4,401.5c13.4,6.5,13,16.3,12.1,34.1v119.8h14.7s0-143,0-143c.2-12.4-7.9-13.6-15.1-14.6h-.1s-.2,0-.2,0h-10.6l-.8,3.7ZM287,278.2c7,5.7,14.2,11.6,18.1,20.7,6,13.9.9,30.7-4.4,45.4-.9,2.4-1.9,7-3,12.2l-.5,2.1,2.1.3c2.4.3,4.9.9,7.3,1.5,3.5.8,7.2,1.7,10.5,1.7h.1c7.7,0,18.9-1,28.6-5.6l1.4-.6-.3-1.5c-3.8-19.6-1-34.3,3.4-52.9,4.7-19.8,5.3-41.7,5.6-60.7v-6.3c0,0-3.5,5.1-3.5,5.1-8,11.5-26.1,23.7-40.2,23.8-2,0-3.8-.3-5.5-.8-5.9-1.9-15.4-11.1-22.1-21.3l-3.5,1.5.3,1.3c2.2,10.8,4.4,21.9,5,33v.9c0,0,.8.5.8.5h0ZM236.4,225.9c-9.6,4.4-19,9.6-21.9,18.2-2.2,6.4-.6,14.2,4.7,23.6,1,1.8,2.1,3.7,3.3,5.7l1.4,2.3,2.3,3.9,1.2-4.4c1-3.5,2-7,3-10.4,3.6-12.1,7.3-24.6,8.6-37.1l.3-3.4-3.1,1.4ZM256.2,746.2c-2.1-3.2-3.1-6.8-3.1-10.7l.3,2.3c.3,2.5,1,4.8,2.1,7l.7,1.4ZM252.1,732.9c-1.3-.8-2.6-1.6-3.7-2.7-4.8-4.8-8-10.2-9.6-16,1.6,5.7,4.9,11.1,9.7,15.9.5.5,1.2,1.1,1.9,1.6l2.1,1.5-.4-.2ZM217.1,684.1c-2.5-.8-5.3-2.1-8.6-3.9-16.4-23.8-22.5-42.9-22.5-70.5s1-17.2,4.6-29.3c-3.6,12.4-4.5,22.4-4.5,29.3,0,27.8,5.8,46.2,22.2,70.1l.3.4.4.2c2.1,1.2,3.9,2.1,5.6,2.8l2.5,1ZM334.8,671.9c18-17.6,19.1-28,20.6-43.9.2-2.1.4-4.2.7-6.5h.1c2.5,6.7,4.2,13,5.4,20.3l3.8.3c1.7-4.8,2.7-9.8,3.1-14.3,1.7-19.9-5.9-38.8-20.8-52-3.9-3.4-8.4-6.4-13.1-8.6l-.7-.3-.7.2c-1.3.4-2.6.9-3.8,1.4-10.9,4.3-18.3,12.5-25.4,20.4-6,6.6-12.2,13.5-20.3,17.7,0,0,0,0,0,0l1.6-1c7.3-4.2,12.8-10.3,18.6-16.8,7-7.8,14.3-15.9,24.9-20.2l4.7-1.9h.3c0,.1.3,0,.3,0l4.3,2.4c3.4,1.9,6.5,4.1,9.3,6.6,14.9,13.2,22.5,32.2,20.8,52.1-.6,6.6-2.7,14.2-5.7,20.9l-.2.5v.5c.1.7.2,1.5.3,2.3.8,7.7,2,11.3,4.3,13,1.3,1,3.1,1.4,5.5,1.4,2.3,0,5.4-.4,10.2-1.4,20.3-4.1,38.3-8.9,54-26.2,2.7-3,6.8-7.9,10.4-13.9l.3-.5v-.6c0-.9-.1-1.8-.2-2.6,0-1-.1-1.9-.2-2.8-.2-3.8-1.1-8.5-2-13.5-.4-1.9-.7-3.8-1-5.7v-.5c0,0-.4-.4-.4-.4-14.5-16.7-35.8-29.6-55.6-33.7-6.8-1.4-14.5-2.1-22.3-2.1s-19,1.1-27.2,3l-4.3,1.1c9-2.7,20.2-4.3,31.3-4.3s15.6.7,22.5,2.1c18,3.6,37.3,14.7,51.7,29.5l3.9,4-.6-5.6c-.3-3-.4-5.5-.1-7.5.3-2.4,1.1-6.4,4-6.6h.2c2.7,0,6.5,4.3,8.1,11.6,1.4,6.4.9,13.3-1.3,20.6l.7-3c1.5-6.1,1.6-12,.4-17.5-1.6-7.4-5.3-11.5-8-11.5h-.2c-1.2,0-3.3,1-3.9,6.5-.3,3.1,0,7.2.9,13.2v.5c0,0,.4.4.4.4,2.5,2.9,4.7,5.9,6.7,8.9l2.4,3.7v.2s0,.2,0,.2l-1.6,3.9c-.8,1.8-1.7,3.7-2.6,5.5l1.6-3.3c.8-1.8,1.6-3.6,2.2-5.4l.3-.9-.5-.8c-1.2-2-2.5-4-3.9-6l-3.5,1.5c.7,3.7,1.4,7.6,1.6,10.9l.5,6.9v.2c0,0,0,.4,0,.4l-3.7,5.2c-2.7,3.9-5.4,7-7.1,8.9-15.7,17.3-34.5,22.3-54.1,26.2-4.9,1-7.9,1.4-10.3,1.4s-4.2-.4-5.5-1.4c-2.1-1.5-3.2-4.3-4-9.7l-.8-5.4-2.8,4.6c-4.6,7.6-12.7,16.7-24.8,17.2h0ZM355.2,630.9c-1.4,13.5-3.1,22.7-16,36.6l2,3.2c8.2-2.8,15.7-10.2,21-21l.3-.5v-.6c-.9-6.8-1.9-12.5-3.4-18l-3.8.3ZM423.1,663.7h0c20.9-11.8,24.1-24.1,24.7-32.4l.2-3.1c0,10.3-3.1,21.2-18.9,31.8l-5.3,3.6h738.8c0,.1-739.5.1-739.5.1ZM283.3,606.2c-2.7-3.7-3.5-8-2.5-12.7,2.5-11.8,15.1-22.7,23-27.1,3.9-2.2,8.5-3.4,13.4-3.4s9.3.9,14.1,2.7l-2.6-.8c-3.9-1.2-7.7-1.8-11.4-1.8s-9.4,1.1-13.4,3.4c-7.5,4.3-20.4,15.4-22.9,27.1-.9,4.1-.3,8,1.6,11.4l.7,1.3ZM211.8,543,213.7,541.9,161.5,480.3l1.3-1.1c3.4-3.1,6.4-6.3,9.2-9.3,7.3-7.8,13.5-14.5,24-14.5s9.3,1.2,15,3.5c1.1,3.1,1.2,5.6.3,8.1l.3-1.5c.3-1.7.2-3.6-.4-5.6l-.3-.9-.9-.4c-5.4-2.2-10-3.2-14.1-3.2-10.3,0-16.3,6.4-23.9,14.6-3.2,3.4-6.5,7-10.5,10.4,0,0,0,0,0,0ZM161,480c-3.1-2.2-4.7-5.8-4.7-10.4.2-9.4,7.2-20.9,13.1-24.4,2.3-1.4,4.7-2.5,7-3.2l-.8-3.8c-1.2.1-2.1.2-2.9.2-3.8,0-7.3-.8-8.6-10.6-1.1-7.6,1.6-14,4.2-20.1,1.3-3.1,2.7-6.3,3.5-9.7.9-3.4,1.9-6.9,2.8-10.2,2-7,4-14.2,5.4-21.1,1.5-7.8,1.1-15.8.8-23.5-.5-10.9-1-22.3,4.1-32.4,2-4,9.1-10.4,16-16.6,7.7-6.9,13.3-12.1,14.7-15.1h.1c-2.9,11.3-.8,16.1,3.4,20.3l2,2c-4-3.4-7.3-7-6.8-14.9l.3-5.2-3.6,3.7c-2.7,2.7-6.2,5.9-10,9.3-6.9,6.2-14.1,12.6-16,16.6-5.1,10.1-4.6,20.9-4.1,32.3.3,7.7.7,15.7-.8,23.5-1.3,7-3.4,14.2-5.4,21.1-1,3.4-1.9,6.9-2.8,10.2-.9,3.4-2.2,6.6-3.5,9.7-2.7,6.4-5.2,12.5-4.2,20.1,1,6.8,2.6,10.5,8.5,10.5s3.3-.2,5.5-.5c2.2-.3,4.7-.6,7.4-.7,1,0,2.1-.1,3.3-.2,2.3-.2,4.9-.3,7.5-.3,6.2,0,10.2,1.1,12.2,3.4,1.2,1.4,1.6,3.2,1.3,5.4v-1.4c0-1.5-.5-2.9-1.3-3.9-1.9-2.3-5.8-3.3-12.2-3.3s-5.2.2-7.3.3h-.9c0,0,0,3.9,0,3.9,4.2.5,8.2,1.7,12.5,2.9,2.2.7,4.5,1.3,6.9,1.9l2.2.5s0,0,0,0c-3.2-.6-6.2-1.5-9.1-2.4-5.4-1.6-10.5-3.1-15.9-3.1s-10.1,1.4-15,4.4c-5.9,3.5-12.9,15-13.1,24.3,0,4.1,1.1,7.3,3.6,9.5l.9.9ZM285.2,388.7c-.1-1.2-.2-2.5-.3-3.8h0c-.7-8.3-1.5-19.6,4.4-24.2,1.7-1.3,3.8-2,6.4-2.1h.8s-2,.2-2,.2c-2.1.2-3.8.9-5.2,2-5.9,4.6-5,16.3-4.4,24l.3,3.9s0,0,0,0ZM427.3,382.5c-1.9-6-5.4-20.6,2.5-26.5,10.9-8.2,7.1-19.5,3.8-29.5-2.8-8.5-4.2-13.9.4-16.7l-.9.8c-3.4,3-2,8,.6,15.8,1.3,3.9,2.7,8.2,3.2,12.6h3.9c1.1-9.5,1.1-22.1-5-28.3l-1.2-1.2s0,0,0,0c13.5,10.6,3.3,48.5-.6,57.8-1.1,2.5-1.6,4.9-2.2,7.2-.6,2.5-1.2,4.8-2.3,6.8l.7-1.8c.6-1.6,1-3.3,1.5-5.1.5-2.2,1.1-4.7,2.2-7.2,1.6-3.8,3.4-9.7,4.7-15.6l-3.6-1.4c-1.2,2.1-2.9,4.1-5.2,5.8-6.8,5.1-5,16.7-3.3,23.2l1,3.8-.2-.7ZM356.9,348.5c1.5-1.6,2.8-3.3,3.9-5.2l.8-1.4-1.2-1.1c-1.2-1-2.3-1.7-4.1-1.7s-.7,0-1.1,0l-1.6.2-.2,1.6c-.2,2-.2,4.1,0,6.4l.3,2.9h0c-.7-4-.7-7.6-.2-10.8,1.2-.2,2.1-.3,2.8-.3,2,0,3,.7,5.3,2.8-1.7,3.3-3.9,6.2-6.6,8.6l1.9-2ZM233.7,294.4c1,2.4,2,5.2,2.5,8.5,1.8,9.8-.7,18-2.4,22.4l-.4.6v.5c-1.6,3.4-3.4,4.6-4.8,5.1-1.8.6-3.8.4-3.8.5,0,0,1.2.3,2.4,0,3.7-.6,5.5-5,5.7-5.6l.5-.6v-.8c-.3-1.6-.5-3.2-.7-4.7-1.2-7.5-4.5-11.4-7.5-14.3l-2.5-2.3.3.3c4.4,3.7,8.1,7.5,9.7,15.5.4-8.4.8-16.7,1.1-25.1Z"/>
  <path class="cls-1" d="M243.5,295.2"/>
</svg>