<?xml version="1.0" encoding="UTF-8"?> <svg xmlns="http://www.w3.org/2000/svg" id="Layer_1" data-name="Layer 1" version="1.1" viewBox="0 0 408.4 418.4"><defs><style> .cls-1 { fill: #000; stroke-width: 0px; } </style></defs><path class="cls-1" d="M365.4,355.1c-6.6,0-8.7-.9-10.4-4.1-3.5-6.6-7.5-13-11.2-19.5-2.8-5-1.7-7,3.9-7.3,7.2-.3,8.4-2.7,4.8-9.1-46.8-81.1-93.6-162.2-140.4-243.3-1.2-2-2.3-4.1-3.5-6-2.8-4.4-6-4.5-8.7,0-4.8,8-9.4,16.1-14,24.2-43.2,74.9-86.5,149.8-129.7,224.7-.7,1.2-3.2,4.9-1.8,7.3.9,1.6,2.9,1.5,10.3,2.1,0,0,7.4.5,18.9.2.8,0,2.3,0,3.7-1,2.1-1.2,2.8-3.4,3.2-4.1,36.2-63,72.6-125.8,109-188.8,3.4-5.8,6-6,9.1-.6,41.8,72.3,83.5,144.6,125.2,216.9,3.6,6.3,2.4,8.2-5,8.2-72,0-144,0-216-.1-5.3,0-8.6,1.4-11,6.4-2.9,6-6.6,11.6-9.9,17.4-3.2,5.8-1.7,8.4,4.8,8.4h213.5c8.1,0,9.3-1.8,5.9-9-2.1-4.4-.8-6.6,4.2-6.7,8-.1,16,.1,24,.1s6.1,0,7,1.7c7.2,12,12.7,25.7,19.6,37.9,2.5,4.4,1,6.9-4.1,7.1H41.9c-5.4-.2-6.9-2.7-4.1-7.4,7.2-12.6,14.5-25.1,21.7-37.7,1.7-2.9,3.4-5.8,5-8.7,4-7,2.6-9.4-5.2-9.4-17.9-.1-35.8-.3-53.7-.4h-2.3s-2.3-1.2-3-2.7c-.3-.7-.6-1.8,0-3.6h0c3-4.9,6.4-10.5,10.2-16.8C41.5,279.7,189.2,22.1,199.4,4.6c3.6-6.2,6-6.2,9.6.1,65.8,114,131.7,228,197.5,342,4.1,7,1.3,8.8-8.5,8.3,0,0,5.3,0-32.6.1ZM203.7,324.2h70.9c7.2,0,8.8-2.7,5.2-8.9-23.5-40.7-47-81.3-70.5-122-3.7-6.5-6.7-6.4-10.5.1-23.4,40.5-46.8,81-70.2,121.5-3.8,6.6-2.4,9.2,5.1,9.2h70,0Z"></path></svg> 